# xmcd
#
# Track frame offsets: 
#        150
#        24825
#        39600
#        63300
#        91650
#        126375
#        157800
#        180600
#        194425
#        219125
#        237300
#
# Disc length: 3447 seconds
#
# Revision: 4
# Processed by: cddbd v1.5.2PL0 Copyright (c) Steve Scherf et al.
# Submitted via: ExactAudioCopy v0.99pb5
#
DISCID=860d750b
DTITLE=Various Artist - Blues Ballads
DYEAR=1993
DGENRE=Blues
TTITLE0=Katie Webster - Misty Blues
TTITLE1=Little Willie Littlefield - Going Down Slow
TTITLE2=John Lee Hooker - It Serves Me Right To Suffer
TTITLE3=The Chicago Allstars - Precious Lord
TTITLE4=Champion Jack Dupree - You Can Make It, You Can Make It
TTITLE5=Katie Webster and "Detroit" Gary Wiggins - When Something Is Wro
TTITLE5=ng With My Baby
TTITLE6=Louisiana Red - Ashland Avenue Blues
TTITLE7=Blind John Davis - St. James Infirmary
TTITLE8=Big Jay McNeely - Summertime
TTITLE9=Tommy Tucker - Hard Luck Blues
TTITLE10="Detroit" Gary Wiggins - Lift Every Voice
EXTD=YEAR: 1993
EXTT0=
EXTT1=
EXTT2=
EXTT3=
EXTT4=
EXTT5=
EXTT6=
EXTT7=
EXTT8=
EXTT9=
EXTT10=
PLAYORDER=
